# xmcd
# 
# Track frame offsets:
#     150
#     3132
#     21282
#     38155
#     53707
#     74102
#     95755
#     118272
#     141552
#     158495
#     179487
#     198215
#     211945
#     229595
# 
# Disc length: 3250
# 
# Revision: 5
# Processed by: cddbd v1.5.2PL0 Copyright (c) Steve Scherf et al.
# Submitted via: fre:ac v1.0.17
# 
DISCID=c40cb00e
DTITLE=Jean-Jacques Milteau - ... merci d'être venus
DYEAR=1996
DGENRE=Blues
TTITLE0=merci d'être venus
TTITLE1=sarbacane (avec F. CABREL)
TTITLE2=bille de verre (avec M. LE FORESTIER)
TTITLE3=et bailler, et dormir (avec C. AZNAVOUR)
TTITLE4=lonely crowd (avec D. LOCKWOOD)
TTITLE5=j'irai quand même (avec F. PAGNY)
TTITLE6=lèche-botte blues (avec E. MITCHELL)
TTITLE7=quand j'rentre le soir (avec R. BOHRINGER)
TTITLE8=beale street (avec J.Y. D'ANGELO)
TTITLE9=les fourmis rouges (avec M. JONASZ)
TTITLE10=les don juan (avec C. NOUGARO)
TTITLE11=big walter (avec M. GALVIN)
TTITLE12=willie and leadbelly (avec P.VERBEKE)
TTITLE13=chronoblues (avec LE TEMPS QUI PASSE)
EXTD=Jean-Jacques MILTEAU/...Merci d'être venus/blues/1996
EXTT0=
EXTT1=
EXTT2=
EXTT3=
EXTT4=
EXTT5=
EXTT6=
EXTT7=
EXTT8=
EXTT9=
EXTT10=
EXTT11=
EXTT12=
EXTT13=
PLAYORDER=
